<?xml version="1.0" encoding="utf-8"?>
<!-- Generator: Adobe Illustrator 19.0.0, SVG Export Plug-In . SVG Version: 6.00 Build 0)  -->
<svg version="1.1" id="Layer_1" xmlns="http://www.w3.org/2000/svg" xmlns:xlink="http://www.w3.org/1999/xlink" x="0px" y="0px"
	 viewBox="-464 516 150 50" style="enable-background:new -464 516 150 50;" xml:space="preserve">
<style type="text/css">
	.st0{display:none;fill:#FEC85D;}
	.st1{clip-path:url(#SVGID_2_);fill:#FD7576;}
	.st2{clip-path:url(#SVGID_4_);fill:#4DB8DE;}
	.st3{fill:none;}
	.st4{clip-path:url(#SVGID_6_);fill:#FD7576;}
	.st5{clip-path:url(#SVGID_8_);fill:#4DB8DE;}
	.st6{clip-path:url(#SVGID_10_);fill:#FD7576;}
	.st7{clip-path:url(#SVGID_12_);fill:#4DB8DE;}
	.st8{clip-path:url(#SVGID_14_);fill:#FD7576;}
	.st9{clip-path:url(#SVGID_16_);fill:#FEC85D;}
	.st10{clip-path:url(#SVGID_18_);fill:#FD7576;}
	.st11{clip-path:url(#SVGID_20_);fill:#FEC85D;}
	.st12{clip-path:url(#SVGID_22_);fill:#FEC85D;}
	.st13{clip-path:url(#SVGID_24_);fill:#FD7576;}
	.st14{clip-path:url(#SVGID_26_);fill:#FD7576;}
	.st15{clip-path:url(#SVGID_28_);fill:#FEC85D;}
</style>
<circle id="XMLID_21_" class="st0" cx="-287.4" cy="-84.7" r="90.5"/>
<g id="XMLID_1_">
	<g id="XMLID_95_">
		<g>
			<defs>
				<path id="SVGID_1_" d="M-441.2,551.5L-441.2,551.5c-1.5,0-2.8-1-3.2-2.4l-2.2-8.6c-0.1-0.4-0.3-1.2-0.5-2.4
					c-0.3-1.2-0.4-2.1-0.4-2.5c-0.1,0.5-0.2,1.3-0.4,2.5c-0.2,1.1-0.4,2-0.5,2.4l-2.2,8.6c-0.4,1.4-1.7,2.4-3.2,2.4l0,0
					c-1.5,0-2.8-1-3.2-2.5l-4-15.8c-0.3-1.3,0.7-2.6,2-2.6l0,0c1,0,1.8,0.7,2,1.6l2.3,9.8c0.5,2.1,0.8,3.9,1,5.5
					c0.1-0.5,0.2-1.4,0.4-2.5c0.2-1.1,0.4-2,0.6-2.7l2.7-10.2c0.2-0.9,1.1-1.6,2-1.6h1c1,0,1.8,0.6,2,1.6l2.6,10.2
					c0.1,0.5,0.3,1.3,0.5,2.4c0.2,1.1,0.4,2,0.5,2.8c0.1-0.7,0.2-1.7,0.5-2.8c0.2-1.1,0.4-2,0.6-2.7l2.3-9.8c0.2-1,1.1-1.6,2.1-1.6
					l0,0c1.4,0,2.4,1.3,2,2.6l-4,15.9C-438.4,550.5-439.7,551.5-441.2,551.5z"/>
			</defs>
			<clipPath id="SVGID_2_">
				<use xlink:href="#SVGID_1_"  style="overflow:visible;"/>
			</clipPath>
			<circle id="XMLID_96_" class="st1" cx="-407.9" cy="499.2" r="60.8"/>
		</g>
		<g>
			<defs>
				<path id="SVGID_3_" d="M-441.2,551.5L-441.2,551.5c-1.5,0-2.8-1-3.2-2.4l-2.2-8.6c-0.1-0.4-0.3-1.2-0.5-2.4
					c-0.3-1.2-0.4-2.1-0.4-2.5c-0.1,0.5-0.2,1.3-0.4,2.5c-0.2,1.1-0.4,2-0.5,2.4l-2.2,8.6c-0.4,1.4-1.7,2.4-3.2,2.4l0,0
					c-1.5,0-2.8-1-3.2-2.5l-4-15.8c-0.3-1.3,0.7-2.6,2-2.6l0,0c1,0,1.8,0.7,2,1.6l2.3,9.8c0.5,2.1,0.8,3.9,1,5.5
					c0.1-0.5,0.2-1.4,0.4-2.5c0.2-1.1,0.4-2,0.6-2.7l2.7-10.2c0.2-0.9,1.1-1.6,2-1.6h1c1,0,1.8,0.6,2,1.6l2.6,10.2
					c0.1,0.5,0.3,1.3,0.5,2.4c0.2,1.1,0.4,2,0.5,2.8c0.1-0.7,0.2-1.7,0.5-2.8c0.2-1.1,0.4-2,0.6-2.7l2.3-9.8c0.2-1,1.1-1.6,2.1-1.6
					l0,0c1.4,0,2.4,1.3,2,2.6l-4,15.9C-438.4,550.5-439.7,551.5-441.2,551.5z"/>
			</defs>
			<clipPath id="SVGID_4_">
				<use xlink:href="#SVGID_3_"  style="overflow:visible;"/>
			</clipPath>
			<circle id="XMLID_94_" class="st2" cx="-432.9" cy="589.9" r="52"/>
		</g>
		<g>
			<path id="XMLID_57_" class="st3" d="M-441.2,551.5L-441.2,551.5c-1.5,0-2.8-1-3.2-2.4l-2.2-8.6c-0.1-0.4-0.3-1.2-0.5-2.4
				c-0.3-1.2-0.4-2.1-0.4-2.5c-0.1,0.5-0.2,1.3-0.4,2.5c-0.2,1.1-0.4,2-0.5,2.4l-2.2,8.6c-0.4,1.4-1.7,2.4-3.2,2.4l0,0
				c-1.5,0-2.8-1-3.2-2.5l-4-15.8c-0.3-1.3,0.7-2.6,2-2.6l0,0c1,0,1.8,0.7,2,1.6l2.3,9.8c0.5,2.1,0.8,3.9,1,5.5
				c0.1-0.5,0.2-1.4,0.4-2.5c0.2-1.1,0.4-2,0.6-2.7l2.7-10.2c0.2-0.9,1.1-1.6,2-1.6h1c1,0,1.8,0.6,2,1.6l2.6,10.2
				c0.1,0.5,0.3,1.3,0.5,2.4c0.2,1.1,0.4,2,0.5,2.8c0.1-0.7,0.2-1.7,0.5-2.8c0.2-1.1,0.4-2,0.6-2.7l2.3-9.8c0.2-1,1.1-1.6,2.1-1.6
				l0,0c1.4,0,2.4,1.3,2,2.6l-4,15.9C-438.4,550.5-439.7,551.5-441.2,551.5z"/>
		</g>
	</g>
	<g id="XMLID_92_">
		<g>
			<defs>
				<path id="SVGID_5_" d="M-410.1,541c0,3.5-0.9,6.1-2.6,8c-1.7,1.9-4.2,2.8-7.4,2.8c-3.2,0-5.7-0.9-7.4-2.8s-2.6-4.5-2.6-8
					s0.9-6.2,2.6-8s4.2-2.8,7.4-2.8c3.2,0,5.7,0.9,7.4,2.8C-411,534.8-410.1,537.5-410.1,541z M-425.4,541c0,2.3,0.4,4.1,1.3,5.3
					s2.2,1.8,4,1.8c3.6,0,5.3-2.4,5.3-7.1s-1.8-7.1-5.3-7.1c-1.8,0-3.1,0.6-4,1.8S-425.4,538.6-425.4,541z"/>
			</defs>
			<clipPath id="SVGID_6_">
				<use xlink:href="#SVGID_5_"  style="overflow:visible;"/>
			</clipPath>
			<circle id="XMLID_93_" class="st4" cx="-407.9" cy="499.2" r="60.8"/>
		</g>
		<g>
			<defs>
				<path id="SVGID_7_" d="M-410.1,541c0,3.5-0.9,6.1-2.6,8c-1.7,1.9-4.2,2.8-7.4,2.8c-3.2,0-5.7-0.9-7.4-2.8s-2.6-4.5-2.6-8
					s0.9-6.2,2.6-8s4.2-2.8,7.4-2.8c3.2,0,5.7,0.9,7.4,2.8C-411,534.8-410.1,537.5-410.1,541z M-425.4,541c0,2.3,0.4,4.1,1.3,5.3
					s2.2,1.8,4,1.8c3.6,0,5.3-2.4,5.3-7.1s-1.8-7.1-5.3-7.1c-1.8,0-3.1,0.6-4,1.8S-425.4,538.6-425.4,541z"/>
			</defs>
			<clipPath id="SVGID_8_">
				<use xlink:href="#SVGID_7_"  style="overflow:visible;"/>
			</clipPath>
			<circle id="XMLID_91_" class="st5" cx="-407.9" cy="589.9" r="52"/>
		</g>
		<g>
			<path id="XMLID_59_" class="st3" d="M-410.1,541c0,3.5-0.9,6.1-2.6,8c-1.7,1.9-4.2,2.8-7.4,2.8c-3.2,0-5.7-0.9-7.4-2.8
				s-2.6-4.5-2.6-8s0.9-6.2,2.6-8s4.2-2.8,7.4-2.8c3.2,0,5.7,0.9,7.4,2.8C-411,534.8-410.1,537.5-410.1,541z M-425.4,541
				c0,2.3,0.4,4.1,1.3,5.3s2.2,1.8,4,1.8c3.6,0,5.3-2.4,5.3-7.1s-1.8-7.1-5.3-7.1c-1.8,0-3.1,0.6-4,1.8S-425.4,538.6-425.4,541z"/>
		</g>
	</g>
	<g id="XMLID_89_">
		<g>
			<defs>
				<path id="SVGID_9_" d="M-399.9,543.5v5.8c0,1.2-1,2.2-2.2,2.2l0,0c-1.2,0-2.2-1-2.2-2.2v-16.5c0-1.2,1-2.2,2.2-2.2h3.9
					c2.9,0,5,0.5,6.3,1.6c1.4,1,2.1,2.6,2.1,4.7c0,1.2-0.3,2.3-1,3.3c-0.7,1-1.6,1.7-2.9,2.3c1.6,2.4,3,4.4,4,6
					c0.9,1.3-0.1,3.1-1.7,3.1l0,0c-0.7,0-1.3-0.4-1.7-1l-4.4-7.1C-397.5,543.5-399.9,543.5-399.9,543.5z M-399.9,538.5
					c0,0.7,0.6,1.3,1.3,1.3h0.1c1.4,0,2.4-0.2,3.1-0.7c0.7-0.5,1-1.2,1-2.2s-0.3-1.7-1-2.1c-0.7-0.4-1.7-0.6-3.2-0.6l0,0
					c-0.7,0-1.3,0.6-1.3,1.3V538.5z"/>
			</defs>
			<clipPath id="SVGID_10_">
				<use xlink:href="#SVGID_9_"  style="overflow:visible;"/>
			</clipPath>
			<circle id="XMLID_90_" class="st6" cx="-366.5" cy="499.2" r="60.8"/>
		</g>
		<g>
			<defs>
				<path id="SVGID_11_" d="M-399.9,543.5v5.8c0,1.2-1,2.2-2.2,2.2l0,0c-1.2,0-2.2-1-2.2-2.2v-16.5c0-1.2,1-2.2,2.2-2.2h3.9
					c2.9,0,5,0.5,6.3,1.6c1.4,1,2.1,2.6,2.1,4.7c0,1.2-0.3,2.3-1,3.3c-0.7,1-1.6,1.7-2.9,2.3c1.6,2.4,3,4.4,4,6
					c0.9,1.3-0.1,3.1-1.7,3.1l0,0c-0.7,0-1.3-0.4-1.7-1l-4.4-7.1C-397.5,543.5-399.9,543.5-399.9,543.5z M-399.9,538.5
					c0,0.7,0.6,1.3,1.3,1.3h0.1c1.4,0,2.4-0.2,3.1-0.7c0.7-0.5,1-1.2,1-2.2s-0.3-1.7-1-2.1c-0.7-0.4-1.7-0.6-3.2-0.6l0,0
					c-0.7,0-1.3,0.6-1.3,1.3V538.5z"/>
			</defs>
			<clipPath id="SVGID_12_">
				<use xlink:href="#SVGID_11_"  style="overflow:visible;"/>
			</clipPath>
			<circle id="XMLID_88_" class="st7" cx="-407.9" cy="589.9" r="52"/>
		</g>
		<g>
			<path id="XMLID_62_" class="st3" d="M-399.9,543.5v5.8c0,1.2-1,2.2-2.2,2.2l0,0c-1.2,0-2.2-1-2.2-2.2v-16.5c0-1.2,1-2.2,2.2-2.2
				h3.9c2.9,0,5,0.5,6.3,1.6c1.4,1,2.1,2.6,2.1,4.7c0,1.2-0.3,2.3-1,3.3c-0.7,1-1.6,1.7-2.9,2.3c1.6,2.4,3,4.4,4,6
				c0.9,1.3-0.1,3.1-1.7,3.1l0,0c-0.7,0-1.3-0.4-1.7-1l-4.4-7.1C-397.5,543.5-399.9,543.5-399.9,543.5z M-399.9,538.5
				c0,0.7,0.6,1.3,1.3,1.3h0.1c1.4,0,2.4-0.2,3.1-0.7c0.7-0.5,1-1.2,1-2.2s-0.3-1.7-1-2.1c-0.7-0.4-1.7-0.6-3.2-0.6l0,0
				c-0.7,0-1.3,0.6-1.3,1.3V538.5z"/>
		</g>
	</g>
	<g id="XMLID_85_">
		<g>
			<defs>
				<path id="SVGID_13_" d="M-362.4,549.3v-16.5c0-1.2,1-2.2,2.2-2.2l0,0c1.2,0,2.2,1,2.2,2.2v16.5c0,1.2-1,2.2-2.2,2.2l0,0
					C-361.4,551.5-362.4,550.5-362.4,549.3z"/>
			</defs>
			<clipPath id="SVGID_14_">
				<use xlink:href="#SVGID_13_"  style="overflow:visible;"/>
			</clipPath>
			<circle id="XMLID_86_" class="st8" cx="-366.5" cy="499.2" r="60.8"/>
		</g>
		<g>
			<defs>
				<path id="SVGID_15_" d="M-362.4,549.3v-16.5c0-1.2,1-2.2,2.2-2.2l0,0c1.2,0,2.2,1,2.2,2.2v16.5c0,1.2-1,2.2-2.2,2.2l0,0
					C-361.4,551.5-362.4,550.5-362.4,549.3z"/>
			</defs>
			<clipPath id="SVGID_16_">
				<use xlink:href="#SVGID_15_"  style="overflow:visible;"/>
			</clipPath>
			<circle id="XMLID_83_" class="st9" cx="-358" cy="589.9" r="52"/>
		</g>
		<g>
			<path id="XMLID_67_" class="st3" d="M-362.4,549.3v-16.5c0-1.2,1-2.2,2.2-2.2l0,0c1.2,0,2.2,1,2.2,2.2v16.5c0,1.2-1,2.2-2.2,2.2
				l0,0C-361.4,551.5-362.4,550.5-362.4,549.3z"/>
		</g>
	</g>
	<g id="XMLID_81_">
		<g>
			<defs>
				<path id="SVGID_17_" d="M-333.3,551.5L-333.3,551.5c-1.5,0-2.8-1-3.2-2.4l-2.2-8.6c-0.1-0.4-0.3-1.2-0.5-2.4
					c-0.3-1.2-0.4-2.1-0.4-2.5c-0.1,0.5-0.2,1.3-0.4,2.5c-0.2,1.1-0.4,2-0.5,2.4l-2.2,8.6c-0.4,1.4-1.7,2.4-3.2,2.4l0,0
					c-1.5,0-2.8-1-3.2-2.5l-4.1-15.9c-0.3-1.3,0.7-2.6,2-2.6l0,0c1,0,1.8,0.7,2,1.6l2.3,9.8c0.5,2.1,0.8,3.9,1,5.5
					c0.1-0.5,0.2-1.4,0.4-2.5c0.2-1.1,0.4-2,0.6-2.7l2.6-10.2c0.2-0.9,1.1-1.6,2-1.6h1c1,0,1.8,0.6,2,1.6l2.6,10.2
					c0.1,0.5,0.3,1.3,0.5,2.4c0.2,1.1,0.4,2,0.5,2.8c0.1-0.7,0.2-1.7,0.5-2.8c0.2-1.1,0.4-2,0.6-2.7l2.3-9.8c0.2-1,1.1-1.6,2.1-1.6
					l0,0c1.4,0,2.4,1.3,2,2.6l-4,15.9C-330.5,550.5-331.8,551.5-333.3,551.5z"/>
			</defs>
			<clipPath id="SVGID_18_">
				<use xlink:href="#SVGID_17_"  style="overflow:visible;"/>
			</clipPath>
			<circle id="XMLID_82_" class="st10" cx="-366.5" cy="499.2" r="60.8"/>
		</g>
		<g>
			<defs>
				<path id="SVGID_19_" d="M-333.3,551.5L-333.3,551.5c-1.5,0-2.8-1-3.2-2.4l-2.2-8.6c-0.1-0.4-0.3-1.2-0.5-2.4
					c-0.3-1.2-0.4-2.1-0.4-2.5c-0.1,0.5-0.2,1.3-0.4,2.5c-0.2,1.1-0.4,2-0.5,2.4l-2.2,8.6c-0.4,1.4-1.7,2.4-3.2,2.4l0,0
					c-1.5,0-2.8-1-3.2-2.5l-4.1-15.9c-0.3-1.3,0.7-2.6,2-2.6l0,0c1,0,1.8,0.7,2,1.6l2.3,9.8c0.5,2.1,0.8,3.9,1,5.5
					c0.1-0.5,0.2-1.4,0.4-2.5c0.2-1.1,0.4-2,0.6-2.7l2.6-10.2c0.2-0.9,1.1-1.6,2-1.6h1c1,0,1.8,0.6,2,1.6l2.6,10.2
					c0.1,0.5,0.3,1.3,0.5,2.4c0.2,1.1,0.4,2,0.5,2.8c0.1-0.7,0.2-1.7,0.5-2.8c0.2-1.1,0.4-2,0.6-2.7l2.3-9.8c0.2-1,1.1-1.6,2.1-1.6
					l0,0c1.4,0,2.4,1.3,2,2.6l-4,15.9C-330.5,550.5-331.8,551.5-333.3,551.5z"/>
			</defs>
			<clipPath id="SVGID_20_">
				<use xlink:href="#SVGID_19_"  style="overflow:visible;"/>
			</clipPath>
			<circle id="XMLID_80_" class="st11" cx="-337.1" cy="589.9" r="52"/>
		</g>
		<g>
			<path id="XMLID_69_" class="st3" d="M-333.3,551.5L-333.3,551.5c-1.5,0-2.8-1-3.2-2.4l-2.2-8.6c-0.1-0.4-0.3-1.2-0.5-2.4
				c-0.3-1.2-0.4-2.1-0.4-2.5c-0.1,0.5-0.2,1.3-0.4,2.5c-0.2,1.1-0.4,2-0.5,2.4l-2.2,8.6c-0.4,1.4-1.7,2.4-3.2,2.4l0,0
				c-1.5,0-2.8-1-3.2-2.5l-4.1-15.9c-0.3-1.3,0.7-2.6,2-2.6l0,0c1,0,1.8,0.7,2,1.6l2.3,9.8c0.5,2.1,0.8,3.9,1,5.5
				c0.1-0.5,0.2-1.4,0.4-2.5c0.2-1.1,0.4-2,0.6-2.7l2.6-10.2c0.2-0.9,1.1-1.6,2-1.6h1c1,0,1.8,0.6,2,1.6l2.6,10.2
				c0.1,0.5,0.3,1.3,0.5,2.4c0.2,1.1,0.4,2,0.5,2.8c0.1-0.7,0.2-1.7,0.5-2.8c0.2-1.1,0.4-2,0.6-2.7l2.3-9.8c0.2-1,1.1-1.6,2.1-1.6
				l0,0c1.4,0,2.4,1.3,2,2.6l-4,15.9C-330.5,550.5-331.8,551.5-333.3,551.5z"/>
		</g>
	</g>
	<g id="XMLID_73_">
		<g>
			<defs>
				<path id="SVGID_21_" d="M-321.3,549.3v-16.5c0-1.2,1-2.2,2.2-2.2l0,0c1.2,0,2.2,1,2.2,2.2v16.5c0,1.2-1,2.2-2.2,2.2l0,0
					C-320.3,551.5-321.3,550.5-321.3,549.3z"/>
			</defs>
			<clipPath id="SVGID_22_">
				<use xlink:href="#SVGID_21_"  style="overflow:visible;"/>
			</clipPath>
			<circle id="XMLID_56_" class="st12" cx="-337.1" cy="589.9" r="52"/>
		</g>
		<g>
			<defs>
				<path id="SVGID_23_" d="M-321.3,549.3v-16.5c0-1.2,1-2.2,2.2-2.2l0,0c1.2,0,2.2,1,2.2,2.2v16.5c0,1.2-1,2.2-2.2,2.2l0,0
					C-320.3,551.5-321.3,550.5-321.3,549.3z"/>
			</defs>
			<clipPath id="SVGID_24_">
				<use xlink:href="#SVGID_23_"  style="overflow:visible;"/>
			</clipPath>
			<circle id="XMLID_79_" class="st13" cx="-366.5" cy="499.2" r="60.8"/>
		</g>
		<g>
			<path id="XMLID_71_" class="st3" d="M-321.3,549.3v-16.5c0-1.2,1-2.2,2.2-2.2l0,0c1.2,0,2.2,1,2.2,2.2v16.5c0,1.2-1,2.2-2.2,2.2
				l0,0C-320.3,551.5-321.3,550.5-321.3,549.3z"/>
		</g>
	</g>
	<g id="XMLID_87_">
		<g>
			<defs>
				<path id="SVGID_25_" d="M-370.4,551.5L-370.4,551.5c-0.7,0-1.4-0.4-1.8-1l-4-6.5c-0.4-0.7-1.4-0.9-2.1-0.4l0,0
					c-0.4,0.3-0.6,0.7-0.6,1.2v4.6c0,1.2-1,2.1-2.1,2.1h-0.2c-1.2,0-2.1-1-2.1-2.1v-16.9c0-1.1,0.9-1.9,1.9-1.9h0.6
					c1.1,0,1.9,0.9,1.9,1.9v4.7c0,0.9,1.2,1.3,1.7,0.6l0,0l0,0l5.1-6.4c0.4-0.5,0.9-0.7,1.5-0.7l0,0c1.6,0,2.5,1.9,1.5,3.1l-4.8,6.1
					l5.3,8.4C-367.7,549.7-368.7,551.5-370.4,551.5z"/>
			</defs>
			<clipPath id="SVGID_26_">
				<use xlink:href="#SVGID_25_"  style="overflow:visible;"/>
			</clipPath>
			<circle id="XMLID_84_" class="st14" cx="-366.5" cy="499.2" r="60.8"/>
		</g>
		<g>
			<defs>
				<path id="SVGID_27_" d="M-370.4,551.5L-370.4,551.5c-0.7,0-1.4-0.4-1.8-1l-4-6.5c-0.4-0.7-1.4-0.9-2.1-0.4l0,0
					c-0.4,0.3-0.6,0.7-0.6,1.2v4.6c0,1.2-1,2.1-2.1,2.1h-0.2c-1.2,0-2.1-1-2.1-2.1v-16.9c0-1.1,0.9-1.9,1.9-1.9h0.6
					c1.1,0,1.9,0.9,1.9,1.9v4.7c0,0.9,1.2,1.3,1.7,0.6l0,0l0,0l5.1-6.4c0.4-0.5,0.9-0.7,1.5-0.7l0,0c1.6,0,2.5,1.9,1.5,3.1l-4.8,6.1
					l5.3,8.4C-367.7,549.7-368.7,551.5-370.4,551.5z"/>
			</defs>
			<clipPath id="SVGID_28_">
				<use xlink:href="#SVGID_27_"  style="overflow:visible;"/>
			</clipPath>
			<circle id="XMLID_78_" class="st15" cx="-358" cy="589.9" r="52"/>
		</g>
		<g>
			<path id="XMLID_65_" class="st3" d="M-370.4,551.5L-370.4,551.5c-0.7,0-1.4-0.4-1.8-1l-4-6.5c-0.4-0.7-1.4-0.9-2.1-0.4l0,0
				c-0.4,0.3-0.6,0.7-0.6,1.2v4.6c0,1.2-1,2.1-2.1,2.1h-0.2c-1.2,0-2.1-1-2.1-2.1v-16.9c0-1.1,0.9-1.9,1.9-1.9h0.6
				c1.1,0,1.9,0.9,1.9,1.9v4.7c0,0.9,1.2,1.3,1.7,0.6l0,0l0,0l5.1-6.4c0.4-0.5,0.9-0.7,1.5-0.7l0,0c1.6,0,2.5,1.9,1.5,3.1l-4.8,6.1
				l5.3,8.4C-367.7,549.7-368.7,551.5-370.4,551.5z"/>
		</g>
	</g>
</g>
</svg>
