<?xml version="1.0" encoding="utf-8"?>
<!-- Generator: Adobe Illustrator 19.0.0, SVG Export Plug-In . SVG Version: 6.00 Build 0)  -->
<svg version="1.1" id="Layer_1" xmlns="http://www.w3.org/2000/svg" xmlns:xlink="http://www.w3.org/1999/xlink" x="0px" y="0px"
	 viewBox="0 0 147 150" style="enable-background:new 0 0 147 150;" xml:space="preserve">
<style type="text/css">
	.st0{fill:#B7E57E;}
	.st1{fill:#A9CC76;}
	.st2{fill:#371900;}
	.st3{fill:#FFFFFF;}
	.st4{fill:#E8BD9A;}
	.st5{fill:#FFFFFF;stroke:#000000;stroke-width:2;stroke-linecap:round;stroke-linejoin:round;stroke-miterlimit:10;}
	.st6{fill:none;stroke:#000000;stroke-width:2;stroke-miterlimit:10;}
	.st7{fill:#FFFFFF;stroke:#FFFFFF;stroke-width:2;stroke-linecap:round;stroke-linejoin:round;stroke-miterlimit:10;}
</style>
<g>
	<g>
		<path id="XMLID_30_" class="st0" d="M129.3,90.8c0,15.2-2.2,29-12.1,39.2c-2.3,2.4-6-0.6-4.3-3.5c0-0.1,0.1-0.1,0.1-0.2
			c7.2-11.6,4.5-21.9,0.8-24.9c-4-3.5-8.6-1.6-15.9,0.4c-7.5,2.2-15.6,3.9-24.4,3.9c-8.8,0-16.9-1.6-24.4-3.9
			c-7.4-2-11.9-3.4-15.9,0.1c-3.7,3-6.4,12.8,0.8,24.4c0,0.1,0.1,0.1,0.1,0.2c1.7,2.8-1.9,5.8-4.2,3.4c-9.1-9.3-11.4-21.7-12.1-35.3
			c-1.5-33.3,22.9-60.5,55.7-60C103.9,35,129.3,59.7,129.3,90.8z"/>
	</g>
	<g>
		<path id="XMLID_29_" class="st1" d="M22.6,97.6c-1.5-33.3,22.9-60.5,55.7-60c9.8,0.1,19.1,2.8,27.2,7.4
			c-9.1-6.5-20.2-10.3-32-10.5c-32.8-0.5-57.2,26.7-55.7,60c0.6,13.7,2.9,26,12.1,35.3c0.8,0.9,1.8,1,2.7,0.7
			C25.2,121.6,23.1,110.2,22.6,97.6z"/>
		<path id="XMLID_28_" class="st1" d="M116,104.5c-1.1-1-2.3-1.5-3.6-1.8c3,4,4.3,13.3-2,23.6c0,0.1-0.1,0.1-0.1,0.2
			c-1.7,2.8,2,5.8,4.3,3.5c0.3-0.3,0.6-0.7,0.9-1C122.3,117.4,119.7,107.4,116,104.5z"/>
	</g>
	<g>
		<path id="XMLID_27_" class="st1" d="M117.4,109.6c0.6-6-1.3-10.6-3.6-12.4c-4-3.5-8.6-1.6-15.9,0.4c-7.5,2.2-15.6,3.9-24.4,3.9
			c-8.8,0-16.9-1.6-24.4-3.9c-7.4-2-11.9-3.4-15.9,0.1c-2.3,1.8-4.2,6.3-3.6,12.2c0.4-3.8,1.9-6.6,3.6-8c4-3.5,8.5-2.1,15.9-0.1
			c7.5,2.2,15.6,3.9,24.4,3.9c8.8,0,16.9-1.6,24.4-3.9c7.4-2,11.9-3.8,15.9-0.4C115.5,102.8,117,105.7,117.4,109.6z"/>
		<path id="XMLID_26_" class="st1" d="M34,126.3c-0.1-0.2-0.2-0.4-0.4-0.6c-1,0.9-2.6,1.2-3.8,0c-9.1-9.3-11.4-21.7-12.1-35.3
			c0-0.2,0-0.4,0-0.6c-0.1,1.6-0.1,3.2,0,4.9c0.6,13.7,2.9,26,12.1,35.3c2.3,2.3,6-0.6,4.2-3.4C34,126.4,34,126.3,34,126.3z"/>
		<path id="XMLID_25_" class="st1" d="M117.1,125.7c-1.2,1.3-2.8,1-3.8,0c-0.1,0.2-0.2,0.4-0.3,0.6c0,0.1-0.1,0.1-0.1,0.2
			c-1.7,2.8,2,5.8,4.3,3.5c9.9-10.2,12.1-24,12.1-39.2c0-0.4,0-0.8,0-1.3C129,103.5,126.4,116.2,117.1,125.7z"/>
	</g>
	<g>
		<path class="st2" d="M115.2,132.5c-0.9,0-1.9-0.3-2.7-0.9c-1.6-1.2-2.5-3.7-1.1-5.9l0.1-0.2c6.8-11,4.1-20.3,1.2-22.6
			c-2.8-2.4-5.8-1.7-12.1,0c-0.7,0.2-1.5,0.4-2.3,0.6c-8.7,2.6-16.9,3.9-24.8,3.9c-8,0-16.1-1.3-24.9-3.9l-0.8-0.2
			c-7.2-1.9-10.4-2.7-13.5-0.1c-3,2.4-5.7,11.3,1.1,22.3c0,0,0.1,0.1,0.1,0.1c0,0,0,0,0,0.1c1.3,2.3,0.5,4.7-1.1,5.9
			c-1.8,1.4-4.2,1.2-5.8-0.4c-10.1-10.3-12-24.2-12.5-36.4c-0.8-17,5.3-33.5,16.5-45.1c10.7-11,25.3-17,40.9-16.7l0,0
			c31.7,0.5,57.5,26.5,57.5,57.9c0,13.5-1.5,28.9-12.6,40.3C117.5,132,116.3,132.5,115.2,132.5z M108.5,97.8c2.3,0,4.4,0.6,6.4,2.4
			c4.3,3.5,7.2,14.5-0.5,27c0,0,0,0.1-0.1,0.1l-0.1,0.1c-0.5,0.8,0.2,1.4,0.3,1.5c0.3,0.2,0.8,0.4,1.3-0.1
			c10.3-10.5,11.7-25.1,11.7-38c0-29.6-24.3-54.1-54.1-54.5c-0.3,0-0.6,0-0.8,0c-14.4,0-27.7,5.6-37.6,15.7
			C24.4,62.9,18.8,78.4,19.5,94.5c0.5,12.2,2.3,24.8,11.6,34.2c0.5,0.6,1.1,0.3,1.3,0.1c0.2-0.1,0.8-0.7,0.3-1.5
			c0,0-0.1-0.1-0.1-0.1l0,0l0,0c-7.7-12.4-4.9-23.1-0.4-26.6c4.5-3.9,9.5-2.5,16.6-0.6l0.8,0.2c8.5,2.6,16.3,3.8,23.9,3.8
			c7.6,0,15.4-1.3,23.9-3.8c0.8-0.2,1.6-0.4,2.3-0.6C103.1,98.6,105.9,97.8,108.5,97.8z"/>
	</g>
	<g>
		<path id="XMLID_22_" class="st3" d="M113.8,101.9c3.7,2.8,6.4,12.6-0.8,23.8c-6.8,10.9-21.4,20-39.5,19.6
			c-18.1,0.4-32.7-8.7-39.5-19.6c-7.2-11.2-4.5-20.5-0.8-23.4c4-3.3,8.5-2,15.9-0.1c7.5,2.1,15.6,3.7,24.4,3.7
			c8.8,0,16.9-1.6,24.4-3.7C105.2,100.3,109.8,98.5,113.8,101.9z"/>
	</g>
	<path id="XMLID_21_" class="st4" d="M114.8,124.2c-0.3-0.5-0.6-0.9-1-1.3c-2.5-2.3-6.8-1.7-9.6,1.3c-2.8,3-3.1,7.3-0.6,9.6
		c0.8,0.7,1.7,1.2,2.7,1.3c2.7-2.4,4.9-5.1,6.6-7.8C113.7,126.3,114.3,125.2,114.8,124.2z"/>
	<path id="XMLID_20_" class="st4" d="M32.5,124.2c0.3-0.5,0.6-0.9,1-1.3c2.5-2.3,6.8-1.7,9.6,1.3c2.8,3,3.1,7.3,0.6,9.6
		c-0.8,0.7-1.7,1.2-2.7,1.3c-2.7-2.4-4.9-5.1-6.6-7.8C33.6,126.3,33,125.2,32.5,124.2z"/>
	<g>
		<path class="st2" d="M72.3,147c-16.4,0-31.9-7.9-39.7-20.4c-7.7-11.9-4.9-22.2-0.4-25.6c4.5-3.7,9.6-2.4,16.7-0.6l0.6,0.2
			c8.5,2.5,16.4,3.7,24,3.7c7.6,0,15.4-1.2,23.9-3.6c0.8-0.2,1.5-0.4,2.2-0.6c6.4-1.7,11-2.9,15.2,0.6c4.4,3.4,7.3,14-0.5,26
			c-8,12.8-24.1,20.8-40.9,20.4C73.1,147,72.7,147,72.3,147z M39.1,101.9c-1.9,0-3.3,0.5-4.8,1.7c-3,2.3-5.6,10.8,1.1,21.2
			c5.6,9,18.9,19.3,38,18.8c19.2,0.4,32.5-9.9,38.1-18.8c6.8-10.5,4.1-19.4,1.2-21.6l-0.1,0c-2.8-2.3-5.9-1.6-12.2,0.1
			c-0.7,0.2-1.4,0.4-2.2,0.6c-8.8,2.5-16.9,3.8-24.8,3.8c-7.9,0-16.1-1.2-24.9-3.8l-0.6-0.1C44.1,102.6,41.3,101.9,39.1,101.9z"/>
	</g>
	<path id="XMLID_17_" class="st5" d="M120.4,130"/>
	<path id="XMLID_16_" class="st5" d="M111.4,130"/>
	<path id="XMLID_15_" class="st6" d="M32.5,103.1"/>
	<path id="XMLID_14_" class="st6" d="M33.2,101.9"/>
	<circle id="XMLID_13_" class="st2" cx="51.3" cy="116.1" r="4.5"/>
	<circle id="XMLID_12_" class="st2" cx="94.7" cy="116.1" r="4.5"/>
	<path id="XMLID_11_" class="st2" d="M73.6,138.3c-6.2,0-11.4-2.6-14.2-4.9c-1.3-1-1.5-2.9-0.4-4.2c1-1.3,2.9-1.5,4.2-0.4
		c0.4,0.3,10,7.8,20.7-0.1c1.3-1,3.2-0.7,4.2,0.6c1,1.3,0.7,3.2-0.6,4.2C82.7,137.1,77.9,138.3,73.6,138.3z"/>
	<g>
		<path id="XMLID_10_" class="st0" d="M107.6,4.7c0,0-12.8,0.3-20.9,8.4c-8.1,8.1-8.4,20.9-8.4,20.9"/>
		<path id="XMLID_9_" class="st2" d="M78.3,35.6C78.3,35.6,78.3,35.6,78.3,35.6c-1,0-1.7-0.8-1.7-1.7c0-0.6,0.4-13.6,8.9-22.1
			C93.9,3.4,107,3,107.5,3c0,0,0,0,0,0c0.9,0,1.7,0.7,1.7,1.7c0,0.9-0.7,1.7-1.7,1.7c-0.2,0-12.3,0.4-19.7,7.9
			C80.4,21.7,80,33.9,80,34C80,34.9,79.2,35.6,78.3,35.6z"/>
	</g>
	<g>
		<path id="XMLID_8_" class="st1" d="M78.3,33.9c0,0,12.8-0.3,20.9-8.4c8.1-8.1,8.4-20.9,8.4-20.9"/>
		<path id="XMLID_7_" class="st2" d="M78.3,35.6c-0.9,0-1.7-0.7-1.7-1.7c0-0.9,0.7-1.7,1.7-1.7c0.2,0,12.3-0.4,19.7-7.9
			c7.5-7.5,7.9-19.6,7.9-19.7c0-0.9,0.8-1.7,1.7-1.7c0.9,0,1.7,0.8,1.7,1.7c0,0.6-0.4,13.6-8.9,22.1C91.9,35.2,78.9,35.6,78.3,35.6
			C78.3,35.6,78.3,35.6,78.3,35.6z"/>
	</g>
	<g id="XMLID_31_">
		<path id="XMLID_46_" class="st7" d="M41.6,87.8V65.8c0-0.5,0.2-0.9,0.5-1.2c0.3-0.3,0.7-0.5,1.2-0.5c0.5,0,0.8,0.2,1.2,0.5
			c0.3,0.3,0.5,0.7,0.5,1.2v9.3c0,1.3,1.5,2.1,2.5,1.4l6.9-4.5c0.3-0.2,0.6-0.3,0.9-0.3c0.2,0,0.4,0,0.7,0.1
			c0.2,0.1,0.4,0.2,0.5,0.4c0.1,0.2,0.3,0.3,0.4,0.5s0.1,0.4,0.1,0.6c0,0.6-0.2,1-0.6,1.3l-5,3.3c-0.8,0.5-1,1.7-0.3,2.5l5.5,6.2
			c0.3,0.3,0.5,0.7,0.5,1.2c0,0.2,0,0.4-0.1,0.6c-0.1,0.2-0.2,0.4-0.4,0.5c-0.1,0.2-0.3,0.3-0.5,0.4c-0.2,0.1-0.4,0.1-0.7,0.1
			c-0.4,0-0.8-0.1-1.1-0.4l-6.4-7.2c-0.5-0.6-1.5-0.7-2.1-0.3h0c-0.5,0.3-0.7,0.8-0.7,1.4v4.8c0,0.5-0.2,0.8-0.5,1.2
			c-0.3,0.3-0.7,0.5-1.2,0.5c-0.5,0-0.9-0.2-1.2-0.5C41.8,88.7,41.6,88.3,41.6,87.8z"/>
		<path id="XMLID_41_" class="st7" d="M66.9,66.6c0,0.5-0.2,1-0.6,1.4s-0.8,0.6-1.4,0.6s-1-0.2-1.4-0.6S63,67.2,63,66.6
			s0.2-1,0.6-1.4s0.8-0.6,1.4-0.6s1,0.2,1.4,0.6S66.9,66.1,66.9,66.6z M63.3,87.8V73.4c0-0.5,0.2-0.9,0.5-1.2
			c0.3-0.3,0.7-0.5,1.2-0.5s0.8,0.2,1.2,0.5c0.3,0.3,0.5,0.7,0.5,1.2v14.4c0,0.5-0.2,0.9-0.5,1.2c-0.3,0.3-0.7,0.5-1.2,0.5
			s-0.8-0.2-1.2-0.5C63.4,88.7,63.3,88.3,63.3,87.8z"/>
		<path id="XMLID_37_" class="st7" d="M84.2,71.7c0.8,0,1.3,0.4,1.6,1.2l1.6,4.7c0.5,1.6,2.8,1.6,3.3,0l1.7-5
			c0.1-0.3,0.3-0.5,0.5-0.7c0.3-0.2,0.6-0.3,1-0.3c0.2,0,0.4,0,0.7,0.1c0.2,0.1,0.4,0.2,0.5,0.4c0.1,0.2,0.3,0.3,0.4,0.5
			c0.1,0.2,0.1,0.4,0.1,0.6c0,0.2,0,0.4-0.1,0.6l-4.8,14.4c-0.1,0.3-0.3,0.6-0.5,0.8s-0.6,0.3-1,0.3c-0.4,0-0.7-0.1-1-0.3
			c-0.3-0.2-0.5-0.5-0.6-0.7l-1.6-4.8c-0.5-1.6-2.8-1.6-3.3,0l-1.6,4.8c-0.1,0.3-0.3,0.6-0.6,0.8c-0.3,0.2-0.6,0.3-1,0.3
			s-0.7-0.1-1-0.3s-0.5-0.5-0.6-0.8L73,74c-0.1-0.2-0.1-0.4-0.1-0.6c0-0.2,0-0.4,0.1-0.6c0.1-0.2,0.2-0.4,0.3-0.5
			c0.1-0.2,0.3-0.3,0.5-0.4c0.2-0.1,0.4-0.1,0.7-0.1c0.4,0,0.7,0.1,1,0.3c0.3,0.2,0.4,0.4,0.5,0.7l1.7,5c0.5,1.6,2.8,1.6,3.3,0
			l1.6-4.7C82.9,72.1,83.4,71.7,84.2,71.7z"/>
		<path id="XMLID_34_" class="st7" d="M105.4,66.6c0,0.5-0.2,1-0.6,1.4c-0.4,0.4-0.8,0.6-1.4,0.6c-0.5,0-1-0.2-1.4-0.6
			s-0.6-0.8-0.6-1.4s0.2-1,0.6-1.4s0.8-0.6,1.4-0.6c0.5,0,1,0.2,1.4,0.6C105.2,65.6,105.4,66.1,105.4,66.6z M101.8,87.8V73.4
			c0-0.5,0.2-0.9,0.5-1.2c0.3-0.3,0.7-0.5,1.2-0.5c0.5,0,0.8,0.2,1.2,0.5s0.5,0.7,0.5,1.2v14.4c0,0.5-0.2,0.9-0.5,1.2
			c-0.3,0.3-0.7,0.5-1.2,0.5c-0.5,0-0.8-0.2-1.2-0.5C101.9,88.7,101.8,88.3,101.8,87.8z"/>
	</g>
</g>
</svg>
